<?xml version="1.0" encoding="UTF-8" standalone="no"?>
<!-- Created with Inkscape (http://www.inkscape.org/) -->

<svg
   version="1.1"
   id="svg2"
   width="50"
   height="80"
   viewBox="0 0 666.66669 666.66669"
 
   xmlns:inkscape="http://www.inkscape.org/namespaces/inkscape"
   xmlns:sodipodi="http://sodipodi.sourceforge.net/DTD/sodipodi-0.dtd"
   xmlns="http://www.w3.org/2000/svg"
   xmlns:svg="http://www.w3.org/2000/svg">
  <defs
     id="defs6">
    <clipPath
       clipPathUnits="userSpaceOnUse"
       id="clipPath18">
      <path
         d="M 0,500 H 500 V 0 H 0 Z"
         id="path16" />
    </clipPath>
    <clipPath
       clipPathUnits="userSpaceOnUse"
       id="clipPath26">
      <path
         d="M 98.2971,395.092 H 414.251 V 80.178 H 98.2971 Z"
         id="path24" />
    </clipPath>
  </defs>
  <sodipodi:namedview
     id="namedview4"
     pagecolor="#ffffff"
     bordercolor="#000000"
     borderopacity="0.25"
     inkscape:showpageshadow="2"
     inkscape:pageopacity="0.0"
     inkscape:pagecheckerboard="0"
     inkscape:deskcolor="#d1d1d1" />
  <g
     id="g8"
     inkscape:groupmode="layer"
     inkscape:label="6531811"
     transform="matrix(1.3333333,0,0,-1.3333333,0,666.66667)">
    <path
       d="M 0,0 H 500 V 500 H 0 Z"
       style="fill:#1b1b1a;fill-opacity:1;fill-rule:nonzero;stroke:none"
       id="path10" />
    <g
       id="g12">
      <g
         id="g14"
         clip-path="url(#clipPath18)">
        <g
           id="g20">
          <g
             id="g22" />
          <g
             id="g42">
            <g
               clip-path="url(#clipPath26)"
               opacity="0.5"
               id="g40">
              <g
                 transform="translate(255.6539,395.092)"
                 id="g30">
                <path
                   d="m 0,0 c -85.548,-0.062 -155.084,-68.79 -157.288,-154.309 -0.555,-21.581 2.192,-42.213 9.467,-61.105 0,0 -24.217,117.435 65.388,178.793 22.976,15.269 55.835,22.92 85.635,22.278 75.453,-1.624 141.595,-69.698 142.107,-145.166 0.528,-77.807 -67.508,-143.144 -145.193,-143.144 -23.113,0 -48.153,5.552 -66.131,17.565 -26.265,17.55 -26.698,45.607 -18.175,68.84 23.799,64.881 62.523,159.395 84.306,161.439 10.1,0.948 37.938,-40.443 79.361,-176.072 0.105,-0.345 0.158,-0.648 0.186,-0.927 4.386,-6.399 8.566,-13.399 8.566,-13.399 -3.649,4.795 -9.532,9.811 -15.288,14.112 -61.426,44.021 -132.789,57.41 -132.789,57.41 l -2.855,-6.424 c 0,0 62.819,-11.939 140.944,-67.188 6.322,-4.471 12.557,-4.234 13.912,2.224 3.064,14.595 -58.983,203.013 -92.1,203.013 -22.718,0 -70.869,-107.273 -95.383,-174.117 -13.109,-35.746 -1.346,-70.653 33.597,-85.774 19.28,-8.342 40.546,-12.966 62.891,-12.963 87.062,0.009 157.293,67.1 157.439,154.162 C 158.744,-73.063 87.67,0.063 0,0"
                   style="fill:#000000;fill-opacity:1;fill-rule:nonzero;stroke:none"
                   id="path28" />
              </g>
              <g
                 transform="translate(172.1837,227.3952)"
                 id="g34">
                <path
                   d="m 0,0 c 0,0 -25.827,2.686 -48.498,-2.579 0,0 28.037,1.432 45.831,-4.357 z"
                   style="fill:#000000;fill-opacity:1;fill-rule:nonzero;stroke:none"
                   id="path32" />
              </g>
              <g
                 transform="translate(264.5485,248.8327)"
                 id="g38">
                <path
                   d="m 0,0 c 0,4.848 -3.931,8.778 -8.778,8.778 -4.849,0 -8.779,-3.93 -8.779,-8.778 0,-4.849 3.93,-8.778 8.779,-8.778 C -3.931,-8.778 0,-4.849 0,0"
                   style="fill:#000000;fill-opacity:1;fill-rule:nonzero;stroke:none"
                   id="path36" />
              </g>
            </g>
          </g>
        </g>
        <g
           id="g44"
           transform="translate(249.3795,407.4567)">
          <path
             d="m 0,0 c -85.548,-0.061 -155.084,-68.789 -157.287,-154.309 -0.556,-21.582 2.191,-42.212 9.466,-61.104 0,0 -24.217,117.434 65.389,178.792 22.975,15.269 55.834,22.92 85.635,22.278 75.453,-1.624 141.594,-69.697 142.106,-145.166 0.528,-77.807 -67.508,-143.144 -145.193,-143.144 -23.113,0 -48.153,5.551 -66.131,17.565 -26.265,17.551 -26.698,45.607 -18.175,68.841 23.799,64.88 62.523,159.394 84.306,161.438 10.1,0.948 37.938,-40.443 79.361,-176.072 0.105,-0.346 0.159,-0.648 0.186,-0.928 4.386,-6.397 8.566,-13.397 8.566,-13.397 -3.649,4.795 -9.531,9.81 -15.288,14.111 -61.425,44.021 -132.789,57.409 -132.789,57.409 l -2.854,-6.422 c 0,0 62.818,-11.94 140.943,-67.189 6.322,-4.471 12.557,-4.233 13.912,2.224 3.064,14.595 -58.983,203.013 -92.1,203.013 -22.718,0 -70.869,-107.273 -95.383,-174.117 -13.109,-35.746 -1.346,-70.652 33.597,-85.773 19.28,-8.343 40.546,-12.966 62.891,-12.964 87.062,0.01 157.293,67.1 157.44,154.161 C 158.744,-73.063 87.671,0.063 0,0"
             style="fill:#ffffff;fill-opacity:1;fill-rule:nonzero;stroke:none"
             id="path46" />
        </g>
        <g
           id="g48"
           transform="translate(163.2423,232.8249)">
          <path
             d="m 0,0 2.667,6.935 c 0,0 -25.826,2.686 -48.498,-2.579 0,0 28.037,1.431 45.831,-4.356"
             style="fill:#e9e9e9;fill-opacity:1;fill-rule:nonzero;stroke:none"
             id="path50" />
        </g>
        <g
           id="g52"
           transform="translate(258.274,261.1974)">
          <path
             d="m 0,0 c 0,-4.848 -3.931,-8.778 -8.778,-8.778 -4.848,0 -8.779,3.93 -8.779,8.778 0,4.848 3.931,8.778 8.779,8.778 C -3.931,8.778 0,4.848 0,0"
             style="fill:#e9e9e9;fill-opacity:1;fill-rule:nonzero;stroke:none"
             id="path54" />
        </g>
      </g>
    </g>
  </g>
</svg>
